<mxfile host="65bd71144e">
    <diagram id="P-X_FP4cyIL4flwZDHhc" name="Page-1">
        <mxGraphModel dx="670" dy="449" grid="1" gridSize="10" guides="1" tooltips="1" connect="1" arrows="1" fold="1" page="1" pageScale="1" pageWidth="1169" pageHeight="827" math="0" shadow="0">
            <root>
                <mxCell id="0"/>
                <mxCell id="zEM5hUx2dwcRb9l77bM1-89" value="Untitled Layer" style="locked=1;" parent="0"/>
                <mxCell id="zEM5hUx2dwcRb9l77bM1-90" value="" style="rounded=0;whiteSpace=wrap;html=1;fontFamily=Open Sans;fontSource=https%3A%2F%2Ffonts.googleapis.com%2Fcss%3Ffamily%3DOpen%2BSans;fontSize=20;fillColor=none;" parent="zEM5hUx2dwcRb9l77bM1-89" vertex="1">
                    <mxGeometry width="1650" height="810" as="geometry"/>
                </mxCell>
                <mxCell id="1" parent="0"/>
                <mxCell id="2" value="Krusher" style="swimlane;fontStyle=1;align=center;verticalAlign=top;childLayout=stackLayout;horizontal=1;startSize=26;horizontalStack=0;resizeParent=1;resizeParentMax=0;resizeLast=0;collapsible=1;marginBottom=0;fontFamily=Open Sans;fontSource=https%3A%2F%2Ffonts.googleapis.com%2Fcss%3Ffamily%3DOpen%2BSans;" parent="1" vertex="1">
                    <mxGeometry x="35" y="50" width="270" height="216" as="geometry"/>
                </mxCell>
                <mxCell id="3" value="- canvas: HTMLCanvasElement" style="text;strokeColor=none;fillColor=none;align=left;verticalAlign=top;spacingLeft=4;spacingRight=4;overflow=hidden;rotatable=0;points=[[0,0.5],[1,0.5]];portConstraint=eastwest;fontFamily=Open Sans;fontSource=https%3A%2F%2Ffonts.googleapis.com%2Fcss%3Ffamily%3DOpen%2BSans;" parent="2" vertex="1">
                    <mxGeometry y="26" width="270" height="26" as="geometry"/>
                </mxCell>
                <mxCell id="zEM5hUx2dwcRb9l77bM1-5" value="- keyListener: KeyListener" style="text;strokeColor=none;fillColor=none;align=left;verticalAlign=top;spacingLeft=4;spacingRight=4;overflow=hidden;rotatable=0;points=[[0,0.5],[1,0.5]];portConstraint=eastwest;fontFamily=Open Sans;fontSource=https%3A%2F%2Ffonts.googleapis.com%2Fcss%3Ffamily%3DOpen%2BSans;" parent="2" vertex="1">
                    <mxGeometry y="52" width="270" height="26" as="geometry"/>
                </mxCell>
                <mxCell id="zEM5hUx2dwcRb9l77bM1-6" value="- currentScene: Scene" style="text;strokeColor=none;fillColor=none;align=left;verticalAlign=top;spacingLeft=4;spacingRight=4;overflow=hidden;rotatable=0;points=[[0,0.5],[1,0.5]];portConstraint=eastwest;fontFamily=Open Sans;fontSource=https%3A%2F%2Ffonts.googleapis.com%2Fcss%3Ffamily%3DOpen%2BSans;" parent="2" vertex="1">
                    <mxGeometry y="78" width="270" height="26" as="geometry"/>
                </mxCell>
                <mxCell id="4" value="" style="line;strokeWidth=1;fillColor=none;align=left;verticalAlign=middle;spacingTop=-1;spacingLeft=3;spacingRight=3;rotatable=0;labelPosition=right;points=[];portConstraint=eastwest;fontFamily=Open Sans;fontSource=https%3A%2F%2Ffonts.googleapis.com%2Fcss%3Ffamily%3DOpen%2BSans;" parent="2" vertex="1">
                    <mxGeometry y="104" width="270" height="8" as="geometry"/>
                </mxCell>
                <mxCell id="5" value="+ constructor(canvas: HTMLCanvasElement)" style="text;strokeColor=none;fillColor=none;align=left;verticalAlign=top;spacingLeft=4;spacingRight=4;overflow=hidden;rotatable=0;points=[[0,0.5],[1,0.5]];portConstraint=eastwest;fontFamily=Open Sans;fontSource=https%3A%2F%2Ffonts.googleapis.com%2Fcss%3Ffamily%3DOpen%2BSans;" parent="2" vertex="1">
                    <mxGeometry y="112" width="270" height="26" as="geometry"/>
                </mxCell>
                <mxCell id="zEM5hUx2dwcRb9l77bM1-7" value="+ processInput(): void" style="text;strokeColor=none;fillColor=none;align=left;verticalAlign=top;spacingLeft=4;spacingRight=4;overflow=hidden;rotatable=0;points=[[0,0.5],[1,0.5]];portConstraint=eastwest;fontFamily=Open Sans;fontSource=https%3A%2F%2Ffonts.googleapis.com%2Fcss%3Ffamily%3DOpen%2BSans;" parent="2" vertex="1">
                    <mxGeometry y="138" width="270" height="26" as="geometry"/>
                </mxCell>
                <mxCell id="zEM5hUx2dwcRb9l77bM1-8" value="+ update(elapsed: number): void" style="text;strokeColor=none;fillColor=none;align=left;verticalAlign=top;spacingLeft=4;spacingRight=4;overflow=hidden;rotatable=0;points=[[0,0.5],[1,0.5]];portConstraint=eastwest;fontFamily=Open Sans;fontSource=https%3A%2F%2Ffonts.googleapis.com%2Fcss%3Ffamily%3DOpen%2BSans;" parent="2" vertex="1">
                    <mxGeometry y="164" width="270" height="26" as="geometry"/>
                </mxCell>
                <mxCell id="zEM5hUx2dwcRb9l77bM1-9" value="+ render(): void" style="text;strokeColor=none;fillColor=none;align=left;verticalAlign=top;spacingLeft=4;spacingRight=4;overflow=hidden;rotatable=0;points=[[0,0.5],[1,0.5]];portConstraint=eastwest;fontFamily=Open Sans;fontSource=https%3A%2F%2Ffonts.googleapis.com%2Fcss%3Ffamily%3DOpen%2BSans;" parent="2" vertex="1">
                    <mxGeometry y="190" width="270" height="26" as="geometry"/>
                </mxCell>
                <mxCell id="zEM5hUx2dwcRb9l77bM1-82" style="edgeStyle=orthogonalEdgeStyle;rounded=0;orthogonalLoop=1;jettySize=auto;html=1;fontFamily=Open Sans;fontSource=https%3A%2F%2Ffonts.googleapis.com%2Fcss%3Ffamily%3DOpen%2BSans;endArrow=diamondThin;endFill=1;startSize=18;endSize=18;exitX=0.007;exitY=0.11;exitDx=0;exitDy=0;exitPerimeter=0;" parent="1" source="zEM5hUx2dwcRb9l77bM1-14" target="zEM5hUx2dwcRb9l77bM1-6" edge="1">
                    <mxGeometry relative="1" as="geometry"/>
                </mxCell>
                <mxCell id="zEM5hUx2dwcRb9l77bM1-14" value="&lt;&lt;abstract&gt;&gt;&#10;Scene" style="swimlane;fontStyle=1;align=center;verticalAlign=top;childLayout=stackLayout;horizontal=1;startSize=40;horizontalStack=0;resizeParent=1;resizeParentMax=0;resizeLast=0;collapsible=1;marginBottom=0;fontFamily=Open Sans;fontSource=https%3A%2F%2Ffonts.googleapis.com%2Fcss%3Ffamily%3DOpen%2BSans;" parent="1" vertex="1">
                    <mxGeometry x="355" y="50" width="340" height="204" as="geometry"/>
                </mxCell>
                <mxCell id="zEM5hUx2dwcRb9l77bM1-15" value="# maxX: number" style="text;strokeColor=none;fillColor=none;align=left;verticalAlign=top;spacingLeft=4;spacingRight=4;overflow=hidden;rotatable=0;points=[[0,0.5],[1,0.5]];portConstraint=eastwest;fontFamily=Open Sans;fontSource=https%3A%2F%2Ffonts.googleapis.com%2Fcss%3Ffamily%3DOpen%2BSans;" parent="zEM5hUx2dwcRb9l77bM1-14" vertex="1">
                    <mxGeometry y="40" width="340" height="26" as="geometry"/>
                </mxCell>
                <mxCell id="zEM5hUx2dwcRb9l77bM1-18" value="# maxY: number" style="text;strokeColor=none;fillColor=none;align=left;verticalAlign=top;spacingLeft=4;spacingRight=4;overflow=hidden;rotatable=0;points=[[0,0.5],[1,0.5]];portConstraint=eastwest;fontFamily=Open Sans;fontSource=https%3A%2F%2Ffonts.googleapis.com%2Fcss%3Ffamily%3DOpen%2BSans;" parent="zEM5hUx2dwcRb9l77bM1-14" vertex="1">
                    <mxGeometry y="66" width="340" height="26" as="geometry"/>
                </mxCell>
                <mxCell id="zEM5hUx2dwcRb9l77bM1-16" value="" style="line;strokeWidth=1;fillColor=none;align=left;verticalAlign=middle;spacingTop=-1;spacingLeft=3;spacingRight=3;rotatable=0;labelPosition=right;points=[];portConstraint=eastwest;strokeColor=inherit;fontFamily=Open Sans;fontSource=https%3A%2F%2Ffonts.googleapis.com%2Fcss%3Ffamily%3DOpen%2BSans;" parent="zEM5hUx2dwcRb9l77bM1-14" vertex="1">
                    <mxGeometry y="92" width="340" height="8" as="geometry"/>
                </mxCell>
                <mxCell id="zEM5hUx2dwcRb9l77bM1-17" value="+ constructor(maxY: number, maxY: number)" style="text;strokeColor=none;fillColor=none;align=left;verticalAlign=top;spacingLeft=4;spacingRight=4;overflow=hidden;rotatable=0;points=[[0,0.5],[1,0.5]];portConstraint=eastwest;fontFamily=Open Sans;fontSource=https%3A%2F%2Ffonts.googleapis.com%2Fcss%3Ffamily%3DOpen%2BSans;" parent="zEM5hUx2dwcRb9l77bM1-14" vertex="1">
                    <mxGeometry y="100" width="340" height="26" as="geometry"/>
                </mxCell>
                <mxCell id="zEM5hUx2dwcRb9l77bM1-21" value="+ &lt;&lt;abstract&gt;&gt; processInput(keylistener: KeyListener)" style="text;strokeColor=none;fillColor=none;align=left;verticalAlign=top;spacingLeft=4;spacingRight=4;overflow=hidden;rotatable=0;points=[[0,0.5],[1,0.5]];portConstraint=eastwest;fontFamily=Open Sans;fontSource=https%3A%2F%2Ffonts.googleapis.com%2Fcss%3Ffamily%3DOpen%2BSans;" parent="zEM5hUx2dwcRb9l77bM1-14" vertex="1">
                    <mxGeometry y="126" width="340" height="26" as="geometry"/>
                </mxCell>
                <mxCell id="zEM5hUx2dwcRb9l77bM1-20" value="+ &lt;&lt;abstract&gt;&gt; update(elapsed: number): Scene" style="text;strokeColor=none;fillColor=none;align=left;verticalAlign=top;spacingLeft=4;spacingRight=4;overflow=hidden;rotatable=0;points=[[0,0.5],[1,0.5]];portConstraint=eastwest;fontFamily=Open Sans;fontSource=https%3A%2F%2Ffonts.googleapis.com%2Fcss%3Ffamily%3DOpen%2BSans;" parent="zEM5hUx2dwcRb9l77bM1-14" vertex="1">
                    <mxGeometry y="152" width="340" height="26" as="geometry"/>
                </mxCell>
                <mxCell id="zEM5hUx2dwcRb9l77bM1-19" value="+ &lt;&lt;abstract&gt;&gt; render(canvas: HTMLCanvasElement): void" style="text;strokeColor=none;fillColor=none;align=left;verticalAlign=top;spacingLeft=4;spacingRight=4;overflow=hidden;rotatable=0;points=[[0,0.5],[1,0.5]];portConstraint=eastwest;fontFamily=Open Sans;fontSource=https%3A%2F%2Ffonts.googleapis.com%2Fcss%3Ffamily%3DOpen%2BSans;" parent="zEM5hUx2dwcRb9l77bM1-14" vertex="1">
                    <mxGeometry y="178" width="340" height="26" as="geometry"/>
                </mxCell>
                <mxCell id="zEM5hUx2dwcRb9l77bM1-80" style="edgeStyle=orthogonalEdgeStyle;rounded=0;orthogonalLoop=1;jettySize=auto;html=1;entryX=0.456;entryY=0.987;entryDx=0;entryDy=0;entryPerimeter=0;fontFamily=Open Sans;fontSource=https%3A%2F%2Ffonts.googleapis.com%2Fcss%3Ffamily%3DOpen%2BSans;endArrow=block;endFill=0;startSize=18;endSize=18;" parent="1" source="zEM5hUx2dwcRb9l77bM1-22" target="zEM5hUx2dwcRb9l77bM1-19" edge="1">
                    <mxGeometry relative="1" as="geometry"/>
                </mxCell>
                <mxCell id="zEM5hUx2dwcRb9l77bM1-22" value="SceneStart" style="swimlane;fontStyle=1;align=center;verticalAlign=top;childLayout=stackLayout;horizontal=1;startSize=26;horizontalStack=0;resizeParent=1;resizeParentMax=0;resizeLast=0;collapsible=1;marginBottom=0;fontFamily=Open Sans;fontSource=https%3A%2F%2Ffonts.googleapis.com%2Fcss%3Ffamily%3DOpen%2BSans;" parent="1" vertex="1">
                    <mxGeometry x="180" y="318" width="290" height="190" as="geometry"/>
                </mxCell>
                <mxCell id="zEM5hUx2dwcRb9l77bM1-23" value="- starting: boolean" style="text;strokeColor=none;fillColor=none;align=left;verticalAlign=top;spacingLeft=4;spacingRight=4;overflow=hidden;rotatable=0;points=[[0,0.5],[1,0.5]];portConstraint=eastwest;fontFamily=Open Sans;fontSource=https%3A%2F%2Ffonts.googleapis.com%2Fcss%3Ffamily%3DOpen%2BSans;" parent="zEM5hUx2dwcRb9l77bM1-22" vertex="1">
                    <mxGeometry y="26" width="290" height="26" as="geometry"/>
                </mxCell>
                <mxCell id="zEM5hUx2dwcRb9l77bM1-26" value="- logo: HTMLImageElement" style="text;strokeColor=none;fillColor=none;align=left;verticalAlign=top;spacingLeft=4;spacingRight=4;overflow=hidden;rotatable=0;points=[[0,0.5],[1,0.5]];portConstraint=eastwest;fontFamily=Open Sans;fontSource=https%3A%2F%2Ffonts.googleapis.com%2Fcss%3Ffamily%3DOpen%2BSans;" parent="zEM5hUx2dwcRb9l77bM1-22" vertex="1">
                    <mxGeometry y="52" width="290" height="26" as="geometry"/>
                </mxCell>
                <mxCell id="zEM5hUx2dwcRb9l77bM1-24" value="" style="line;strokeWidth=1;fillColor=none;align=left;verticalAlign=middle;spacingTop=-1;spacingLeft=3;spacingRight=3;rotatable=0;labelPosition=right;points=[];portConstraint=eastwest;strokeColor=inherit;fontFamily=Open Sans;fontSource=https%3A%2F%2Ffonts.googleapis.com%2Fcss%3Ffamily%3DOpen%2BSans;" parent="zEM5hUx2dwcRb9l77bM1-22" vertex="1">
                    <mxGeometry y="78" width="290" height="8" as="geometry"/>
                </mxCell>
                <mxCell id="zEM5hUx2dwcRb9l77bM1-30" value="+ constructor(maxY: number, maxY: number)" style="text;strokeColor=none;fillColor=none;align=left;verticalAlign=top;spacingLeft=4;spacingRight=4;overflow=hidden;rotatable=0;points=[[0,0.5],[1,0.5]];portConstraint=eastwest;fontFamily=Open Sans;fontSource=https%3A%2F%2Ffonts.googleapis.com%2Fcss%3Ffamily%3DOpen%2BSans;" parent="zEM5hUx2dwcRb9l77bM1-22" vertex="1">
                    <mxGeometry y="86" width="290" height="26" as="geometry"/>
                </mxCell>
                <mxCell id="zEM5hUx2dwcRb9l77bM1-27" value="+ processInput(keylistener: KeyListener)" style="text;strokeColor=none;fillColor=none;align=left;verticalAlign=top;spacingLeft=4;spacingRight=4;overflow=hidden;rotatable=0;points=[[0,0.5],[1,0.5]];portConstraint=eastwest;fontFamily=Open Sans;fontSource=https%3A%2F%2Ffonts.googleapis.com%2Fcss%3Ffamily%3DOpen%2BSans;" parent="zEM5hUx2dwcRb9l77bM1-22" vertex="1">
                    <mxGeometry y="112" width="290" height="26" as="geometry"/>
                </mxCell>
                <mxCell id="zEM5hUx2dwcRb9l77bM1-28" value="+ update(elapsed: number): Scene" style="text;strokeColor=none;fillColor=none;align=left;verticalAlign=top;spacingLeft=4;spacingRight=4;overflow=hidden;rotatable=0;points=[[0,0.5],[1,0.5]];portConstraint=eastwest;fontFamily=Open Sans;fontSource=https%3A%2F%2Ffonts.googleapis.com%2Fcss%3Ffamily%3DOpen%2BSans;" parent="zEM5hUx2dwcRb9l77bM1-22" vertex="1">
                    <mxGeometry y="138" width="290" height="26" as="geometry"/>
                </mxCell>
                <mxCell id="zEM5hUx2dwcRb9l77bM1-29" value="+ render(canvas: HTMLCanvasElement): void" style="text;strokeColor=none;fillColor=none;align=left;verticalAlign=top;spacingLeft=4;spacingRight=4;overflow=hidden;rotatable=0;points=[[0,0.5],[1,0.5]];portConstraint=eastwest;fontFamily=Open Sans;fontSource=https%3A%2F%2Ffonts.googleapis.com%2Fcss%3Ffamily%3DOpen%2BSans;" parent="zEM5hUx2dwcRb9l77bM1-22" vertex="1">
                    <mxGeometry y="164" width="290" height="26" as="geometry"/>
                </mxCell>
                <mxCell id="zEM5hUx2dwcRb9l77bM1-81" style="edgeStyle=orthogonalEdgeStyle;rounded=0;orthogonalLoop=1;jettySize=auto;html=1;fontFamily=Open Sans;fontSource=https%3A%2F%2Ffonts.googleapis.com%2Fcss%3Ffamily%3DOpen%2BSans;endArrow=block;endFill=0;startSize=18;endSize=18;entryX=0.455;entryY=0.989;entryDx=0;entryDy=0;entryPerimeter=0;" parent="1" source="zEM5hUx2dwcRb9l77bM1-31" target="zEM5hUx2dwcRb9l77bM1-19" edge="1">
                    <mxGeometry relative="1" as="geometry">
                        <mxPoint x="510" y="256" as="targetPoint"/>
                    </mxGeometry>
                </mxCell>
                <mxCell id="zEM5hUx2dwcRb9l77bM1-31" value="Level" style="swimlane;fontStyle=1;align=center;verticalAlign=top;childLayout=stackLayout;horizontal=1;startSize=26;horizontalStack=0;resizeParent=1;resizeParentMax=0;resizeLast=0;collapsible=1;marginBottom=0;fontFamily=Open Sans;fontSource=https%3A%2F%2Ffonts.googleapis.com%2Fcss%3Ffamily%3DOpen%2BSans;" parent="1" vertex="1">
                    <mxGeometry x="540" y="318" width="290" height="268" as="geometry"/>
                </mxCell>
                <mxCell id="zEM5hUx2dwcRb9l77bM1-32" value="- player: Player" style="text;strokeColor=none;fillColor=none;align=left;verticalAlign=top;spacingLeft=4;spacingRight=4;overflow=hidden;rotatable=0;points=[[0,0.5],[1,0.5]];portConstraint=eastwest;fontFamily=Open Sans;fontSource=https%3A%2F%2Ffonts.googleapis.com%2Fcss%3Ffamily%3DOpen%2BSans;" parent="zEM5hUx2dwcRb9l77bM1-31" vertex="1">
                    <mxGeometry y="26" width="290" height="26" as="geometry"/>
                </mxCell>
                <mxCell id="zEM5hUx2dwcRb9l77bM1-33" value="- scoreItems: ScoreItem[]" style="text;strokeColor=none;fillColor=none;align=left;verticalAlign=top;spacingLeft=4;spacingRight=4;overflow=hidden;rotatable=0;points=[[0,0.5],[1,0.5]];portConstraint=eastwest;fontFamily=Open Sans;fontSource=https%3A%2F%2Ffonts.googleapis.com%2Fcss%3Ffamily%3DOpen%2BSans;" parent="zEM5hUx2dwcRb9l77bM1-31" vertex="1">
                    <mxGeometry y="52" width="290" height="26" as="geometry"/>
                </mxCell>
                <mxCell id="zEM5hUx2dwcRb9l77bM1-39" value="- timeToNextKudzu: number" style="text;strokeColor=none;fillColor=none;align=left;verticalAlign=top;spacingLeft=4;spacingRight=4;overflow=hidden;rotatable=0;points=[[0,0.5],[1,0.5]];portConstraint=eastwest;fontFamily=Open Sans;fontSource=https%3A%2F%2Ffonts.googleapis.com%2Fcss%3Ffamily%3DOpen%2BSans;" parent="zEM5hUx2dwcRb9l77bM1-31" vertex="1">
                    <mxGeometry y="78" width="290" height="26" as="geometry"/>
                </mxCell>
                <mxCell id="zEM5hUx2dwcRb9l77bM1-40" value="- currentScore: number" style="text;strokeColor=none;fillColor=none;align=left;verticalAlign=top;spacingLeft=4;spacingRight=4;overflow=hidden;rotatable=0;points=[[0,0.5],[1,0.5]];portConstraint=eastwest;fontFamily=Open Sans;fontSource=https%3A%2F%2Ffonts.googleapis.com%2Fcss%3Ffamily%3DOpen%2BSans;" parent="zEM5hUx2dwcRb9l77bM1-31" vertex="1">
                    <mxGeometry y="104" width="290" height="26" as="geometry"/>
                </mxCell>
                <mxCell id="yHedsZ4BBBhvVPpoMhcV-5" value="- flowersLost: number" style="text;strokeColor=none;fillColor=none;align=left;verticalAlign=top;spacingLeft=4;spacingRight=4;overflow=hidden;rotatable=0;points=[[0,0.5],[1,0.5]];portConstraint=eastwest;fontFamily=Open Sans;fontSource=https%3A%2F%2Ffonts.googleapis.com%2Fcss%3Ffamily%3DOpen%2BSans;" parent="zEM5hUx2dwcRb9l77bM1-31" vertex="1">
                    <mxGeometry y="130" width="290" height="26" as="geometry"/>
                </mxCell>
                <mxCell id="zEM5hUx2dwcRb9l77bM1-34" value="" style="line;strokeWidth=1;fillColor=none;align=left;verticalAlign=middle;spacingTop=-1;spacingLeft=3;spacingRight=3;rotatable=0;labelPosition=right;points=[];portConstraint=eastwest;strokeColor=inherit;fontFamily=Open Sans;fontSource=https%3A%2F%2Ffonts.googleapis.com%2Fcss%3Ffamily%3DOpen%2BSans;" parent="zEM5hUx2dwcRb9l77bM1-31" vertex="1">
                    <mxGeometry y="156" width="290" height="8" as="geometry"/>
                </mxCell>
                <mxCell id="zEM5hUx2dwcRb9l77bM1-35" value="+ constructor(maxY: number, maxY: number)" style="text;strokeColor=none;fillColor=none;align=left;verticalAlign=top;spacingLeft=4;spacingRight=4;overflow=hidden;rotatable=0;points=[[0,0.5],[1,0.5]];portConstraint=eastwest;fontFamily=Open Sans;fontSource=https%3A%2F%2Ffonts.googleapis.com%2Fcss%3Ffamily%3DOpen%2BSans;" parent="zEM5hUx2dwcRb9l77bM1-31" vertex="1">
                    <mxGeometry y="164" width="290" height="26" as="geometry"/>
                </mxCell>
                <mxCell id="zEM5hUx2dwcRb9l77bM1-38" value="+ processInput(keylistener: KeyListener)" style="text;strokeColor=none;fillColor=none;align=left;verticalAlign=top;spacingLeft=4;spacingRight=4;overflow=hidden;rotatable=0;points=[[0,0.5],[1,0.5]];portConstraint=eastwest;fontFamily=Open Sans;fontSource=https%3A%2F%2Ffonts.googleapis.com%2Fcss%3Ffamily%3DOpen%2BSans;" parent="zEM5hUx2dwcRb9l77bM1-31" vertex="1">
                    <mxGeometry y="190" width="290" height="26" as="geometry"/>
                </mxCell>
                <mxCell id="zEM5hUx2dwcRb9l77bM1-37" value="+ update(elapsed: number): Scene" style="text;strokeColor=none;fillColor=none;align=left;verticalAlign=top;spacingLeft=4;spacingRight=4;overflow=hidden;rotatable=0;points=[[0,0.5],[1,0.5]];portConstraint=eastwest;fontFamily=Open Sans;fontSource=https%3A%2F%2Ffonts.googleapis.com%2Fcss%3Ffamily%3DOpen%2BSans;" parent="zEM5hUx2dwcRb9l77bM1-31" vertex="1">
                    <mxGeometry y="216" width="290" height="26" as="geometry"/>
                </mxCell>
                <mxCell id="zEM5hUx2dwcRb9l77bM1-36" value="+ render(canvas: HTMLCanvasElement): void" style="text;strokeColor=none;fillColor=none;align=left;verticalAlign=top;spacingLeft=4;spacingRight=4;overflow=hidden;rotatable=0;points=[[0,0.5],[1,0.5]];portConstraint=eastwest;fontFamily=Open Sans;fontSource=https%3A%2F%2Ffonts.googleapis.com%2Fcss%3Ffamily%3DOpen%2BSans;" parent="zEM5hUx2dwcRb9l77bM1-31" vertex="1">
                    <mxGeometry y="242" width="290" height="26" as="geometry"/>
                </mxCell>
                <mxCell id="zEM5hUx2dwcRb9l77bM1-41" value="&lt;&lt;abstract&gt;&gt;&#10;Drawable" style="swimlane;fontStyle=1;align=center;verticalAlign=top;childLayout=stackLayout;horizontal=1;startSize=40;horizontalStack=0;resizeParent=1;resizeParentMax=0;resizeLast=0;collapsible=1;marginBottom=0;fontFamily=Open Sans;fontSource=https%3A%2F%2Ffonts.googleapis.com%2Fcss%3Ffamily%3DOpen%2BSans;" parent="1" vertex="1">
                    <mxGeometry x="1055" y="50" width="260" height="256" as="geometry"/>
                </mxCell>
                <mxCell id="zEM5hUx2dwcRb9l77bM1-42" value="# image: HTMLImageElement" style="text;strokeColor=none;fillColor=none;align=left;verticalAlign=top;spacingLeft=4;spacingRight=4;overflow=hidden;rotatable=0;points=[[0,0.5],[1,0.5]];portConstraint=eastwest;fontFamily=Open Sans;fontSource=https%3A%2F%2Ffonts.googleapis.com%2Fcss%3Ffamily%3DOpen%2BSans;" parent="zEM5hUx2dwcRb9l77bM1-41" vertex="1">
                    <mxGeometry y="40" width="260" height="26" as="geometry"/>
                </mxCell>
                <mxCell id="zEM5hUx2dwcRb9l77bM1-45" value="# posX: number" style="text;strokeColor=none;fillColor=none;align=left;verticalAlign=top;spacingLeft=4;spacingRight=4;overflow=hidden;rotatable=0;points=[[0,0.5],[1,0.5]];portConstraint=eastwest;fontFamily=Open Sans;fontSource=https%3A%2F%2Ffonts.googleapis.com%2Fcss%3Ffamily%3DOpen%2BSans;" parent="zEM5hUx2dwcRb9l77bM1-41" vertex="1">
                    <mxGeometry y="66" width="260" height="26" as="geometry"/>
                </mxCell>
                <mxCell id="zEM5hUx2dwcRb9l77bM1-46" value="# posY: number" style="text;strokeColor=none;fillColor=none;align=left;verticalAlign=top;spacingLeft=4;spacingRight=4;overflow=hidden;rotatable=0;points=[[0,0.5],[1,0.5]];portConstraint=eastwest;fontFamily=Open Sans;fontSource=https%3A%2F%2Ffonts.googleapis.com%2Fcss%3Ffamily%3DOpen%2BSans;" parent="zEM5hUx2dwcRb9l77bM1-41" vertex="1">
                    <mxGeometry y="92" width="260" height="26" as="geometry"/>
                </mxCell>
                <mxCell id="zEM5hUx2dwcRb9l77bM1-43" value="" style="line;strokeWidth=1;fillColor=none;align=left;verticalAlign=middle;spacingTop=-1;spacingLeft=3;spacingRight=3;rotatable=0;labelPosition=right;points=[];portConstraint=eastwest;strokeColor=inherit;fontFamily=Open Sans;fontSource=https%3A%2F%2Ffonts.googleapis.com%2Fcss%3Ffamily%3DOpen%2BSans;" parent="zEM5hUx2dwcRb9l77bM1-41" vertex="1">
                    <mxGeometry y="118" width="260" height="8" as="geometry"/>
                </mxCell>
                <mxCell id="zEM5hUx2dwcRb9l77bM1-48" value="+ getPosX(): number" style="text;strokeColor=none;fillColor=none;align=left;verticalAlign=top;spacingLeft=4;spacingRight=4;overflow=hidden;rotatable=0;points=[[0,0.5],[1,0.5]];portConstraint=eastwest;fontFamily=Open Sans;fontSource=https%3A%2F%2Ffonts.googleapis.com%2Fcss%3Ffamily%3DOpen%2BSans;" parent="zEM5hUx2dwcRb9l77bM1-41" vertex="1">
                    <mxGeometry y="126" width="260" height="26" as="geometry"/>
                </mxCell>
                <mxCell id="zEM5hUx2dwcRb9l77bM1-47" value="+ getPosY(): number" style="text;strokeColor=none;fillColor=none;align=left;verticalAlign=top;spacingLeft=4;spacingRight=4;overflow=hidden;rotatable=0;points=[[0,0.5],[1,0.5]];portConstraint=eastwest;fontFamily=Open Sans;fontSource=https%3A%2F%2Ffonts.googleapis.com%2Fcss%3Ffamily%3DOpen%2BSans;" parent="zEM5hUx2dwcRb9l77bM1-41" vertex="1">
                    <mxGeometry y="152" width="260" height="26" as="geometry"/>
                </mxCell>
                <mxCell id="zEM5hUx2dwcRb9l77bM1-50" value="+ getWidth(): number" style="text;strokeColor=none;fillColor=none;align=left;verticalAlign=top;spacingLeft=4;spacingRight=4;overflow=hidden;rotatable=0;points=[[0,0.5],[1,0.5]];portConstraint=eastwest;fontFamily=Open Sans;fontSource=https%3A%2F%2Ffonts.googleapis.com%2Fcss%3Ffamily%3DOpen%2BSans;" parent="zEM5hUx2dwcRb9l77bM1-41" vertex="1">
                    <mxGeometry y="178" width="260" height="26" as="geometry"/>
                </mxCell>
                <mxCell id="zEM5hUx2dwcRb9l77bM1-49" value="+ getHeight(): number" style="text;strokeColor=none;fillColor=none;align=left;verticalAlign=top;spacingLeft=4;spacingRight=4;overflow=hidden;rotatable=0;points=[[0,0.5],[1,0.5]];portConstraint=eastwest;fontFamily=Open Sans;fontSource=https%3A%2F%2Ffonts.googleapis.com%2Fcss%3Ffamily%3DOpen%2BSans;" parent="zEM5hUx2dwcRb9l77bM1-41" vertex="1">
                    <mxGeometry y="204" width="260" height="26" as="geometry"/>
                </mxCell>
                <mxCell id="zEM5hUx2dwcRb9l77bM1-44" value="+ render(canvas: HTMLCanvasElement): void" style="text;strokeColor=none;fillColor=none;align=left;verticalAlign=top;spacingLeft=4;spacingRight=4;overflow=hidden;rotatable=0;points=[[0,0.5],[1,0.5]];portConstraint=eastwest;fontFamily=Open Sans;fontSource=https%3A%2F%2Ffonts.googleapis.com%2Fcss%3Ffamily%3DOpen%2BSans;" parent="zEM5hUx2dwcRb9l77bM1-41" vertex="1">
                    <mxGeometry y="230" width="260" height="26" as="geometry"/>
                </mxCell>
                <mxCell id="zEM5hUx2dwcRb9l77bM1-78" style="edgeStyle=orthogonalEdgeStyle;rounded=0;orthogonalLoop=1;jettySize=auto;html=1;entryX=0.459;entryY=1.024;entryDx=0;entryDy=0;entryPerimeter=0;fontFamily=Open Sans;fontSource=https%3A%2F%2Ffonts.googleapis.com%2Fcss%3Ffamily%3DOpen%2BSans;endArrow=block;endFill=0;startSize=18;endSize=18;" parent="1" source="zEM5hUx2dwcRb9l77bM1-51" target="zEM5hUx2dwcRb9l77bM1-44" edge="1">
                    <mxGeometry relative="1" as="geometry"/>
                </mxCell>
                <mxCell id="zEM5hUx2dwcRb9l77bM1-83" style="edgeStyle=orthogonalEdgeStyle;rounded=0;orthogonalLoop=1;jettySize=auto;html=1;fontFamily=Open Sans;fontSource=https%3A%2F%2Ffonts.googleapis.com%2Fcss%3Ffamily%3DOpen%2BSans;endArrow=diamondThin;endFill=1;startSize=18;endSize=18;entryX=1;entryY=0.5;entryDx=0;entryDy=0;" parent="1" source="zEM5hUx2dwcRb9l77bM1-51" target="zEM5hUx2dwcRb9l77bM1-32" edge="1">
                    <mxGeometry relative="1" as="geometry">
                        <Array as="points">
                            <mxPoint x="870" y="390"/>
                            <mxPoint x="870" y="357"/>
                        </Array>
                        <mxPoint x="860" y="390" as="targetPoint"/>
                    </mxGeometry>
                </mxCell>
                <mxCell id="zEM5hUx2dwcRb9l77bM1-51" value="Player" style="swimlane;fontStyle=1;align=center;verticalAlign=top;childLayout=stackLayout;horizontal=1;startSize=26;horizontalStack=0;resizeParent=1;resizeParentMax=0;resizeLast=0;collapsible=1;marginBottom=0;fontFamily=Open Sans;fontSource=https%3A%2F%2Ffonts.googleapis.com%2Fcss%3Ffamily%3DOpen%2BSans;" parent="1" vertex="1">
                    <mxGeometry x="885" y="370" width="270" height="138" as="geometry"/>
                </mxCell>
                <mxCell id="zEM5hUx2dwcRb9l77bM1-52" value="- speed: number" style="text;strokeColor=none;fillColor=none;align=left;verticalAlign=top;spacingLeft=4;spacingRight=4;overflow=hidden;rotatable=0;points=[[0,0.5],[1,0.5]];portConstraint=eastwest;fontFamily=Open Sans;fontSource=https%3A%2F%2Ffonts.googleapis.com%2Fcss%3Ffamily%3DOpen%2BSans;" parent="zEM5hUx2dwcRb9l77bM1-51" vertex="1">
                    <mxGeometry y="26" width="270" height="26" as="geometry"/>
                </mxCell>
                <mxCell id="zEM5hUx2dwcRb9l77bM1-53" value="" style="line;strokeWidth=1;fillColor=none;align=left;verticalAlign=middle;spacingTop=-1;spacingLeft=3;spacingRight=3;rotatable=0;labelPosition=right;points=[];portConstraint=eastwest;strokeColor=inherit;fontFamily=Open Sans;fontSource=https%3A%2F%2Ffonts.googleapis.com%2Fcss%3Ffamily%3DOpen%2BSans;" parent="zEM5hUx2dwcRb9l77bM1-51" vertex="1">
                    <mxGeometry y="52" width="270" height="8" as="geometry"/>
                </mxCell>
                <mxCell id="zEM5hUx2dwcRb9l77bM1-54" value="+ constructor(maxX: number, maxY: number)" style="text;strokeColor=none;fillColor=none;align=left;verticalAlign=top;spacingLeft=4;spacingRight=4;overflow=hidden;rotatable=0;points=[[0,0.5],[1,0.5]];portConstraint=eastwest;fontFamily=Open Sans;fontSource=https%3A%2F%2Ffonts.googleapis.com%2Fcss%3Ffamily%3DOpen%2BSans;" parent="zEM5hUx2dwcRb9l77bM1-51" vertex="1">
                    <mxGeometry y="60" width="270" height="26" as="geometry"/>
                </mxCell>
                <mxCell id="zEM5hUx2dwcRb9l77bM1-75" value="+ collidesWithItem(item: ScoreItem)" style="text;strokeColor=none;fillColor=none;align=left;verticalAlign=top;spacingLeft=4;spacingRight=4;overflow=hidden;rotatable=0;points=[[0,0.5],[1,0.5]];portConstraint=eastwest;fontFamily=Open Sans;fontSource=https%3A%2F%2Ffonts.googleapis.com%2Fcss%3Ffamily%3DOpen%2BSans;" parent="zEM5hUx2dwcRb9l77bM1-51" vertex="1">
                    <mxGeometry y="86" width="270" height="26" as="geometry"/>
                </mxCell>
                <mxCell id="zEM5hUx2dwcRb9l77bM1-55" value="+ move(direction: number): void" style="text;strokeColor=none;fillColor=none;align=left;verticalAlign=top;spacingLeft=4;spacingRight=4;overflow=hidden;rotatable=0;points=[[0,0.5],[1,0.5]];portConstraint=eastwest;fontFamily=Open Sans;fontSource=https%3A%2F%2Ffonts.googleapis.com%2Fcss%3Ffamily%3DOpen%2BSans;" parent="zEM5hUx2dwcRb9l77bM1-51" vertex="1">
                    <mxGeometry y="112" width="270" height="26" as="geometry"/>
                </mxCell>
                <mxCell id="zEM5hUx2dwcRb9l77bM1-79" style="edgeStyle=orthogonalEdgeStyle;rounded=0;orthogonalLoop=1;jettySize=auto;html=1;fontFamily=Open Sans;fontSource=https%3A%2F%2Ffonts.googleapis.com%2Fcss%3Ffamily%3DOpen%2BSans;endArrow=block;endFill=0;startSize=18;endSize=18;exitX=0.5;exitY=0;exitDx=0;exitDy=0;entryX=0.461;entryY=1.026;entryDx=0;entryDy=0;entryPerimeter=0;" parent="1" source="zEM5hUx2dwcRb9l77bM1-56" target="zEM5hUx2dwcRb9l77bM1-44" edge="1">
                    <mxGeometry relative="1" as="geometry">
                        <mxPoint x="1165" y="310" as="targetPoint"/>
                    </mxGeometry>
                </mxCell>
                <mxCell id="zEM5hUx2dwcRb9l77bM1-84" style="edgeStyle=orthogonalEdgeStyle;rounded=0;orthogonalLoop=1;jettySize=auto;html=1;fontFamily=Open Sans;fontSource=https%3A%2F%2Ffonts.googleapis.com%2Fcss%3Ffamily%3DOpen%2BSans;endArrow=diamondThin;endFill=1;startSize=18;endSize=18;entryX=1;entryY=0.5;entryDx=0;entryDy=0;" parent="1" source="zEM5hUx2dwcRb9l77bM1-56" target="zEM5hUx2dwcRb9l77bM1-33" edge="1">
                    <mxGeometry relative="1" as="geometry">
                        <Array as="points">
                            <mxPoint x="1265" y="520"/>
                            <mxPoint x="860" y="520"/>
                            <mxPoint x="860" y="383"/>
                        </Array>
                        <mxPoint x="860" y="420" as="targetPoint"/>
                    </mxGeometry>
                </mxCell>
                <mxCell id="zEM5hUx2dwcRb9l77bM1-56" value="&lt;&lt;abstract&gt;&gt;&#10;ScoreItem" style="swimlane;fontStyle=1;align=center;verticalAlign=top;childLayout=stackLayout;horizontal=1;startSize=40;horizontalStack=0;resizeParent=1;resizeParentMax=0;resizeLast=0;collapsible=1;marginBottom=0;fontFamily=Open Sans;fontSource=https%3A%2F%2Ffonts.googleapis.com%2Fcss%3Ffamily%3DOpen%2BSans;" parent="1" vertex="1">
                    <mxGeometry x="1196" y="370" width="270" height="126" as="geometry"/>
                </mxCell>
                <mxCell id="zEM5hUx2dwcRb9l77bM1-57" value="# scoreModifier: number" style="text;strokeColor=none;fillColor=none;align=left;verticalAlign=top;spacingLeft=4;spacingRight=4;overflow=hidden;rotatable=0;points=[[0,0.5],[1,0.5]];portConstraint=eastwest;fontFamily=Open Sans;fontSource=https%3A%2F%2Ffonts.googleapis.com%2Fcss%3Ffamily%3DOpen%2BSans;" parent="zEM5hUx2dwcRb9l77bM1-56" vertex="1">
                    <mxGeometry y="40" width="270" height="26" as="geometry"/>
                </mxCell>
                <mxCell id="zEM5hUx2dwcRb9l77bM1-58" value="" style="line;strokeWidth=1;fillColor=none;align=left;verticalAlign=middle;spacingTop=-1;spacingLeft=3;spacingRight=3;rotatable=0;labelPosition=right;points=[];portConstraint=eastwest;strokeColor=inherit;fontFamily=Open Sans;fontSource=https%3A%2F%2Ffonts.googleapis.com%2Fcss%3Ffamily%3DOpen%2BSans;" parent="zEM5hUx2dwcRb9l77bM1-56" vertex="1">
                    <mxGeometry y="66" width="270" height="8" as="geometry"/>
                </mxCell>
                <mxCell id="zEM5hUx2dwcRb9l77bM1-60" value="+ getScoreModifier(): number" style="text;strokeColor=none;fillColor=none;align=left;verticalAlign=top;spacingLeft=4;spacingRight=4;overflow=hidden;rotatable=0;points=[[0,0.5],[1,0.5]];portConstraint=eastwest;fontFamily=Open Sans;fontSource=https%3A%2F%2Ffonts.googleapis.com%2Fcss%3Ffamily%3DOpen%2BSans;" parent="zEM5hUx2dwcRb9l77bM1-56" vertex="1">
                    <mxGeometry y="74" width="270" height="26" as="geometry"/>
                </mxCell>
                <mxCell id="zEM5hUx2dwcRb9l77bM1-59" value="+ &lt;&lt;abstract&gt;&gt; update(elapsed: number): void" style="text;strokeColor=none;fillColor=none;align=left;verticalAlign=top;spacingLeft=4;spacingRight=4;overflow=hidden;rotatable=0;points=[[0,0.5],[1,0.5]];portConstraint=eastwest;fontFamily=Open Sans;fontSource=https%3A%2F%2Ffonts.googleapis.com%2Fcss%3Ffamily%3DOpen%2BSans;" parent="zEM5hUx2dwcRb9l77bM1-56" vertex="1">
                    <mxGeometry y="100" width="270" height="26" as="geometry"/>
                </mxCell>
                <mxCell id="zEM5hUx2dwcRb9l77bM1-76" style="edgeStyle=orthogonalEdgeStyle;rounded=0;orthogonalLoop=1;jettySize=auto;html=1;entryX=0.478;entryY=1.006;entryDx=0;entryDy=0;entryPerimeter=0;fontFamily=Open Sans;fontSource=https%3A%2F%2Ffonts.googleapis.com%2Fcss%3Ffamily%3DOpen%2BSans;endArrow=block;endFill=0;startSize=18;endSize=18;" parent="1" source="zEM5hUx2dwcRb9l77bM1-61" target="zEM5hUx2dwcRb9l77bM1-59" edge="1">
                    <mxGeometry relative="1" as="geometry"/>
                </mxCell>
                <mxCell id="zEM5hUx2dwcRb9l77bM1-61" value="Flower" style="swimlane;fontStyle=1;align=center;verticalAlign=top;childLayout=stackLayout;horizontal=1;startSize=26;horizontalStack=0;resizeParent=1;resizeParentMax=0;resizeLast=0;collapsible=1;marginBottom=0;fontFamily=Open Sans;fontSource=https%3A%2F%2Ffonts.googleapis.com%2Fcss%3Ffamily%3DOpen%2BSans;" parent="1" vertex="1">
                    <mxGeometry x="1045" y="570" width="270" height="112" as="geometry"/>
                </mxCell>
                <mxCell id="CfBZ-Mnv18Ft_rn5eU6W-6" value="- timeToNextChange: number" style="text;strokeColor=none;fillColor=none;align=left;verticalAlign=top;spacingLeft=4;spacingRight=4;overflow=hidden;rotatable=0;points=[[0,0.5],[1,0.5]];portConstraint=eastwest;fontFamily=Open Sans;fontSource=https%3A%2F%2Ffonts.googleapis.com%2Fcss%3Ffamily%3DOpen%2BSans;" parent="zEM5hUx2dwcRb9l77bM1-61" vertex="1">
                    <mxGeometry y="26" width="270" height="26" as="geometry"/>
                </mxCell>
                <mxCell id="zEM5hUx2dwcRb9l77bM1-63" value="" style="line;strokeWidth=1;fillColor=none;align=left;verticalAlign=middle;spacingTop=-1;spacingLeft=3;spacingRight=3;rotatable=0;labelPosition=right;points=[];portConstraint=eastwest;strokeColor=inherit;fontFamily=Open Sans;fontSource=https%3A%2F%2Ffonts.googleapis.com%2Fcss%3Ffamily%3DOpen%2BSans;" parent="zEM5hUx2dwcRb9l77bM1-61" vertex="1">
                    <mxGeometry y="52" width="270" height="8" as="geometry"/>
                </mxCell>
                <mxCell id="zEM5hUx2dwcRb9l77bM1-64" value="+ constructor(maxX: number, maxY: number)" style="text;strokeColor=none;fillColor=none;align=left;verticalAlign=top;spacingLeft=4;spacingRight=4;overflow=hidden;rotatable=0;points=[[0,0.5],[1,0.5]];portConstraint=eastwest;fontFamily=Open Sans;fontSource=https%3A%2F%2Ffonts.googleapis.com%2Fcss%3Ffamily%3DOpen%2BSans;" parent="zEM5hUx2dwcRb9l77bM1-61" vertex="1">
                    <mxGeometry y="60" width="270" height="26" as="geometry"/>
                </mxCell>
                <mxCell id="zEM5hUx2dwcRb9l77bM1-66" value="+ update(elapsed: number): void" style="text;strokeColor=none;fillColor=none;align=left;verticalAlign=top;spacingLeft=4;spacingRight=4;overflow=hidden;rotatable=0;points=[[0,0.5],[1,0.5]];portConstraint=eastwest;fontFamily=Open Sans;fontSource=https%3A%2F%2Ffonts.googleapis.com%2Fcss%3Ffamily%3DOpen%2BSans;" parent="zEM5hUx2dwcRb9l77bM1-61" vertex="1">
                    <mxGeometry y="86" width="270" height="26" as="geometry"/>
                </mxCell>
                <mxCell id="zEM5hUx2dwcRb9l77bM1-77" style="edgeStyle=orthogonalEdgeStyle;rounded=0;orthogonalLoop=1;jettySize=auto;html=1;entryX=0.478;entryY=1.026;entryDx=0;entryDy=0;entryPerimeter=0;fontFamily=Open Sans;fontSource=https%3A%2F%2Ffonts.googleapis.com%2Fcss%3Ffamily%3DOpen%2BSans;endArrow=block;endFill=0;startSize=18;endSize=18;" parent="1" source="zEM5hUx2dwcRb9l77bM1-67" target="zEM5hUx2dwcRb9l77bM1-59" edge="1">
                    <mxGeometry relative="1" as="geometry"/>
                </mxCell>
                <mxCell id="zEM5hUx2dwcRb9l77bM1-67" value="Kudzu" style="swimlane;fontStyle=1;align=center;verticalAlign=top;childLayout=stackLayout;horizontal=1;startSize=26;horizontalStack=0;resizeParent=1;resizeParentMax=0;resizeLast=0;collapsible=1;marginBottom=0;fontFamily=Open Sans;fontSource=https%3A%2F%2Ffonts.googleapis.com%2Fcss%3Ffamily%3DOpen%2BSans;" parent="1" vertex="1">
                    <mxGeometry x="1355" y="570" width="270" height="164" as="geometry"/>
                </mxCell>
                <mxCell id="zEM5hUx2dwcRb9l77bM1-68" value="- maxX: number" style="text;strokeColor=none;fillColor=none;align=left;verticalAlign=top;spacingLeft=4;spacingRight=4;overflow=hidden;rotatable=0;points=[[0,0.5],[1,0.5]];portConstraint=eastwest;fontFamily=Open Sans;fontSource=https%3A%2F%2Ffonts.googleapis.com%2Fcss%3Ffamily%3DOpen%2BSans;" parent="zEM5hUx2dwcRb9l77bM1-67" vertex="1">
                    <mxGeometry y="26" width="270" height="26" as="geometry"/>
                </mxCell>
                <mxCell id="zEM5hUx2dwcRb9l77bM1-72" value="- maxY: number" style="text;strokeColor=none;fillColor=none;align=left;verticalAlign=top;spacingLeft=4;spacingRight=4;overflow=hidden;rotatable=0;points=[[0,0.5],[1,0.5]];portConstraint=eastwest;fontFamily=Open Sans;fontSource=https%3A%2F%2Ffonts.googleapis.com%2Fcss%3Ffamily%3DOpen%2BSans;" parent="zEM5hUx2dwcRb9l77bM1-67" vertex="1">
                    <mxGeometry y="52" width="270" height="26" as="geometry"/>
                </mxCell>
                <mxCell id="zEM5hUx2dwcRb9l77bM1-73" value="- speedX: number" style="text;strokeColor=none;fillColor=none;align=left;verticalAlign=top;spacingLeft=4;spacingRight=4;overflow=hidden;rotatable=0;points=[[0,0.5],[1,0.5]];portConstraint=eastwest;fontFamily=Open Sans;fontSource=https%3A%2F%2Ffonts.googleapis.com%2Fcss%3Ffamily%3DOpen%2BSans;" parent="zEM5hUx2dwcRb9l77bM1-67" vertex="1">
                    <mxGeometry y="78" width="270" height="26" as="geometry"/>
                </mxCell>
                <mxCell id="zEM5hUx2dwcRb9l77bM1-74" value="- speedY: number" style="text;strokeColor=none;fillColor=none;align=left;verticalAlign=top;spacingLeft=4;spacingRight=4;overflow=hidden;rotatable=0;points=[[0,0.5],[1,0.5]];portConstraint=eastwest;fontFamily=Open Sans;fontSource=https%3A%2F%2Ffonts.googleapis.com%2Fcss%3Ffamily%3DOpen%2BSans;" parent="zEM5hUx2dwcRb9l77bM1-67" vertex="1">
                    <mxGeometry y="104" width="270" height="26" as="geometry"/>
                </mxCell>
                <mxCell id="zEM5hUx2dwcRb9l77bM1-69" value="" style="line;strokeWidth=1;fillColor=none;align=left;verticalAlign=middle;spacingTop=-1;spacingLeft=3;spacingRight=3;rotatable=0;labelPosition=right;points=[];portConstraint=eastwest;strokeColor=inherit;fontFamily=Open Sans;fontSource=https%3A%2F%2Ffonts.googleapis.com%2Fcss%3Ffamily%3DOpen%2BSans;" parent="zEM5hUx2dwcRb9l77bM1-67" vertex="1">
                    <mxGeometry y="130" width="270" height="8" as="geometry"/>
                </mxCell>
                <mxCell id="zEM5hUx2dwcRb9l77bM1-71" value="+ update(elapsed: number): void" style="text;strokeColor=none;fillColor=none;align=left;verticalAlign=top;spacingLeft=4;spacingRight=4;overflow=hidden;rotatable=0;points=[[0,0.5],[1,0.5]];portConstraint=eastwest;fontFamily=Open Sans;fontSource=https%3A%2F%2Ffonts.googleapis.com%2Fcss%3Ffamily%3DOpen%2BSans;" parent="zEM5hUx2dwcRb9l77bM1-67" vertex="1">
                    <mxGeometry y="138" width="270" height="26" as="geometry"/>
                </mxCell>
                <mxCell id="zEM5hUx2dwcRb9l77bM1-85" style="rounded=0;orthogonalLoop=1;jettySize=auto;html=1;fontFamily=Open Sans;fontSource=https%3A%2F%2Ffonts.googleapis.com%2Fcss%3Ffamily%3DOpen%2BSans;endArrow=none;endFill=0;startSize=18;endSize=18;dashed=1;exitX=1;exitY=0.5;exitDx=0;exitDy=0;entryX=-0.002;entryY=0.178;entryDx=0;entryDy=0;entryPerimeter=0;" parent="1" source="zEM5hUx2dwcRb9l77bM1-75" target="zEM5hUx2dwcRb9l77bM1-56" edge="1">
                    <mxGeometry relative="1" as="geometry">
                        <mxPoint x="1205" y="390" as="targetPoint"/>
                    </mxGeometry>
                </mxCell>
                <mxCell id="zEM5hUx2dwcRb9l77bM1-86" value="uses" style="edgeLabel;html=1;align=center;verticalAlign=middle;resizable=0;points=[];fontFamily=Open Sans;" parent="zEM5hUx2dwcRb9l77bM1-85" vertex="1" connectable="0">
                    <mxGeometry x="0.1965" relative="1" as="geometry">
                        <mxPoint x="-6" y="4" as="offset"/>
                    </mxGeometry>
                </mxCell>
                <mxCell id="zEM5hUx2dwcRb9l77bM1-87" value="KudzuKrusher" style="text;html=1;strokeColor=none;fillColor=none;align=center;verticalAlign=middle;whiteSpace=wrap;rounded=0;fontFamily=Open Sans;fontSource=https%3A%2F%2Ffonts.googleapis.com%2Fcss%3Ffamily%3DOpen%2BSans;fontStyle=1;fontSize=20;" parent="1" vertex="1">
                    <mxGeometry x="755" y="10" width="160" height="30" as="geometry"/>
                </mxCell>
                <mxCell id="oa2P7J7MkgWkLyop6mqP-5" style="edgeStyle=orthogonalEdgeStyle;rounded=0;orthogonalLoop=1;jettySize=auto;html=1;endArrow=block;endFill=0;startSize=18;endSize=18;entryX=0.456;entryY=1.024;entryDx=0;entryDy=0;entryPerimeter=0;" parent="1" source="CfBZ-Mnv18Ft_rn5eU6W-7" target="zEM5hUx2dwcRb9l77bM1-19" edge="1">
                    <mxGeometry relative="1" as="geometry">
                        <mxPoint x="510" y="256" as="targetPoint"/>
                        <Array as="points">
                            <mxPoint x="220" y="540"/>
                            <mxPoint x="510" y="540"/>
                        </Array>
                    </mxGeometry>
                </mxCell>
                <mxCell id="CfBZ-Mnv18Ft_rn5eU6W-7" value="SceneWin" style="swimlane;fontStyle=1;align=center;verticalAlign=top;childLayout=stackLayout;horizontal=1;startSize=26;horizontalStack=0;resizeParent=1;resizeParentMax=0;resizeLast=0;collapsible=1;marginBottom=0;fontFamily=Open Sans;fontSource=https%3A%2F%2Ffonts.googleapis.com%2Fcss%3Ffamily%3DOpen%2BSans;" parent="1" vertex="1">
                    <mxGeometry x="85" y="620" width="270" height="164" as="geometry"/>
                </mxCell>
                <mxCell id="CfBZ-Mnv18Ft_rn5eU6W-8" value="- continue: boolean" style="text;strokeColor=none;fillColor=none;align=left;verticalAlign=top;spacingLeft=4;spacingRight=4;overflow=hidden;rotatable=0;points=[[0,0.5],[1,0.5]];portConstraint=eastwest;fontFamily=Open Sans;fontSource=https%3A%2F%2Ffonts.googleapis.com%2Fcss%3Ffamily%3DOpen%2BSans;" parent="CfBZ-Mnv18Ft_rn5eU6W-7" vertex="1">
                    <mxGeometry y="26" width="270" height="26" as="geometry"/>
                </mxCell>
                <mxCell id="CfBZ-Mnv18Ft_rn5eU6W-10" value="" style="line;strokeWidth=1;fillColor=none;align=left;verticalAlign=middle;spacingTop=-1;spacingLeft=3;spacingRight=3;rotatable=0;labelPosition=right;points=[];portConstraint=eastwest;strokeColor=inherit;fontFamily=Open Sans;fontSource=https%3A%2F%2Ffonts.googleapis.com%2Fcss%3Ffamily%3DOpen%2BSans;" parent="CfBZ-Mnv18Ft_rn5eU6W-7" vertex="1">
                    <mxGeometry y="52" width="270" height="8" as="geometry"/>
                </mxCell>
                <mxCell id="CfBZ-Mnv18Ft_rn5eU6W-11" value="+ constructor(maxY: number, maxY: number)" style="text;strokeColor=none;fillColor=none;align=left;verticalAlign=top;spacingLeft=4;spacingRight=4;overflow=hidden;rotatable=0;points=[[0,0.5],[1,0.5]];portConstraint=eastwest;fontFamily=Open Sans;fontSource=https%3A%2F%2Ffonts.googleapis.com%2Fcss%3Ffamily%3DOpen%2BSans;" parent="CfBZ-Mnv18Ft_rn5eU6W-7" vertex="1">
                    <mxGeometry y="60" width="270" height="26" as="geometry"/>
                </mxCell>
                <mxCell id="CfBZ-Mnv18Ft_rn5eU6W-12" value="+ processInput(keylistener: KeyListener)" style="text;strokeColor=none;fillColor=none;align=left;verticalAlign=top;spacingLeft=4;spacingRight=4;overflow=hidden;rotatable=0;points=[[0,0.5],[1,0.5]];portConstraint=eastwest;fontFamily=Open Sans;fontSource=https%3A%2F%2Ffonts.googleapis.com%2Fcss%3Ffamily%3DOpen%2BSans;" parent="CfBZ-Mnv18Ft_rn5eU6W-7" vertex="1">
                    <mxGeometry y="86" width="270" height="26" as="geometry"/>
                </mxCell>
                <mxCell id="CfBZ-Mnv18Ft_rn5eU6W-13" value="+ update(elapsed: number): Scene" style="text;strokeColor=none;fillColor=none;align=left;verticalAlign=top;spacingLeft=4;spacingRight=4;overflow=hidden;rotatable=0;points=[[0,0.5],[1,0.5]];portConstraint=eastwest;fontFamily=Open Sans;fontSource=https%3A%2F%2Ffonts.googleapis.com%2Fcss%3Ffamily%3DOpen%2BSans;" parent="CfBZ-Mnv18Ft_rn5eU6W-7" vertex="1">
                    <mxGeometry y="112" width="270" height="26" as="geometry"/>
                </mxCell>
                <mxCell id="CfBZ-Mnv18Ft_rn5eU6W-14" value="+ render(canvas: HTMLCanvasElement): void" style="text;strokeColor=none;fillColor=none;align=left;verticalAlign=top;spacingLeft=4;spacingRight=4;overflow=hidden;rotatable=0;points=[[0,0.5],[1,0.5]];portConstraint=eastwest;fontFamily=Open Sans;fontSource=https%3A%2F%2Ffonts.googleapis.com%2Fcss%3Ffamily%3DOpen%2BSans;" parent="CfBZ-Mnv18Ft_rn5eU6W-7" vertex="1">
                    <mxGeometry y="138" width="270" height="26" as="geometry"/>
                </mxCell>
                <mxCell id="oa2P7J7MkgWkLyop6mqP-6" style="edgeStyle=orthogonalEdgeStyle;rounded=0;orthogonalLoop=1;jettySize=auto;html=1;endArrow=block;endFill=0;startSize=18;endSize=18;" parent="1" source="CfBZ-Mnv18Ft_rn5eU6W-15" edge="1">
                    <mxGeometry relative="1" as="geometry">
                        <mxPoint x="511" y="254" as="targetPoint"/>
                        <Array as="points">
                            <mxPoint x="510" y="254"/>
                        </Array>
                    </mxGeometry>
                </mxCell>
                <mxCell id="CfBZ-Mnv18Ft_rn5eU6W-15" value="SceneWin" style="swimlane;fontStyle=1;align=center;verticalAlign=top;childLayout=stackLayout;horizontal=1;startSize=26;horizontalStack=0;resizeParent=1;resizeParentMax=0;resizeLast=0;collapsible=1;marginBottom=0;fontFamily=Open Sans;fontSource=https%3A%2F%2Ffonts.googleapis.com%2Fcss%3Ffamily%3DOpen%2BSans;" parent="1" vertex="1">
                    <mxGeometry x="380" y="620" width="270" height="164" as="geometry"/>
                </mxCell>
                <mxCell id="CfBZ-Mnv18Ft_rn5eU6W-16" value="- continue: boolean" style="text;strokeColor=none;fillColor=none;align=left;verticalAlign=top;spacingLeft=4;spacingRight=4;overflow=hidden;rotatable=0;points=[[0,0.5],[1,0.5]];portConstraint=eastwest;fontFamily=Open Sans;fontSource=https%3A%2F%2Ffonts.googleapis.com%2Fcss%3Ffamily%3DOpen%2BSans;" parent="CfBZ-Mnv18Ft_rn5eU6W-15" vertex="1">
                    <mxGeometry y="26" width="270" height="26" as="geometry"/>
                </mxCell>
                <mxCell id="CfBZ-Mnv18Ft_rn5eU6W-17" value="" style="line;strokeWidth=1;fillColor=none;align=left;verticalAlign=middle;spacingTop=-1;spacingLeft=3;spacingRight=3;rotatable=0;labelPosition=right;points=[];portConstraint=eastwest;strokeColor=inherit;fontFamily=Open Sans;fontSource=https%3A%2F%2Ffonts.googleapis.com%2Fcss%3Ffamily%3DOpen%2BSans;" parent="CfBZ-Mnv18Ft_rn5eU6W-15" vertex="1">
                    <mxGeometry y="52" width="270" height="8" as="geometry"/>
                </mxCell>
                <mxCell id="CfBZ-Mnv18Ft_rn5eU6W-18" value="+ constructor(maxY: number, maxY: number)" style="text;strokeColor=none;fillColor=none;align=left;verticalAlign=top;spacingLeft=4;spacingRight=4;overflow=hidden;rotatable=0;points=[[0,0.5],[1,0.5]];portConstraint=eastwest;fontFamily=Open Sans;fontSource=https%3A%2F%2Ffonts.googleapis.com%2Fcss%3Ffamily%3DOpen%2BSans;" parent="CfBZ-Mnv18Ft_rn5eU6W-15" vertex="1">
                    <mxGeometry y="60" width="270" height="26" as="geometry"/>
                </mxCell>
                <mxCell id="CfBZ-Mnv18Ft_rn5eU6W-19" value="+ processInput(keylistener: KeyListener)" style="text;strokeColor=none;fillColor=none;align=left;verticalAlign=top;spacingLeft=4;spacingRight=4;overflow=hidden;rotatable=0;points=[[0,0.5],[1,0.5]];portConstraint=eastwest;fontFamily=Open Sans;fontSource=https%3A%2F%2Ffonts.googleapis.com%2Fcss%3Ffamily%3DOpen%2BSans;" parent="CfBZ-Mnv18Ft_rn5eU6W-15" vertex="1">
                    <mxGeometry y="86" width="270" height="26" as="geometry"/>
                </mxCell>
                <mxCell id="CfBZ-Mnv18Ft_rn5eU6W-20" value="+ update(elapsed: number): Scene" style="text;strokeColor=none;fillColor=none;align=left;verticalAlign=top;spacingLeft=4;spacingRight=4;overflow=hidden;rotatable=0;points=[[0,0.5],[1,0.5]];portConstraint=eastwest;fontFamily=Open Sans;fontSource=https%3A%2F%2Ffonts.googleapis.com%2Fcss%3Ffamily%3DOpen%2BSans;" parent="CfBZ-Mnv18Ft_rn5eU6W-15" vertex="1">
                    <mxGeometry y="112" width="270" height="26" as="geometry"/>
                </mxCell>
                <mxCell id="CfBZ-Mnv18Ft_rn5eU6W-21" value="+ render(canvas: HTMLCanvasElement): void" style="text;strokeColor=none;fillColor=none;align=left;verticalAlign=top;spacingLeft=4;spacingRight=4;overflow=hidden;rotatable=0;points=[[0,0.5],[1,0.5]];portConstraint=eastwest;fontFamily=Open Sans;fontSource=https%3A%2F%2Ffonts.googleapis.com%2Fcss%3Ffamily%3DOpen%2BSans;" parent="CfBZ-Mnv18Ft_rn5eU6W-15" vertex="1">
                    <mxGeometry y="138" width="270" height="26" as="geometry"/>
                </mxCell>
            </root>
        </mxGraphModel>
    </diagram>
</mxfile>